<svg xmlns="http://www.w3.org/2000/svg" version="1.1" xmlns:xlink="http://www.w3.org/1999/xlink" xmlns:svgjs="http://svgjs.com/svgjs" width="1920" height="1280" preserveAspectRatio="none" viewBox="0 0 1920 1280"><g mask="url(&quot;#SvgjsMask1285&quot;)" fill="none"><rect width="1920" height="1280" x="0" y="0" fill="url(#SvgjsLinearGradient1286)"></rect><path d="M41.189877264312145-84.73667168474667L-142.96111162238253 93.09587115275667 215.8631970772198 280.406083064047z" fill="rgba(28, 83, 142, 0.4)" class="triangle-float2"></path><path d="M336.67148815654525 172.35449404112197L5.417303515885806-116.15508338944278-74.42078575813372 259.4535952923386z" fill="rgba(28, 83, 142, 0.4)" class="triangle-float2"></path><path d="M-83.18922531438216 218.50966799187813L97.83011066937408 399.5290039756343 278.84944665313014 37.49033200812187z" fill="rgba(28, 83, 142, 0.4)" class="triangle-float2"></path><path d="M1691.8460666056765 316.3621531432377L2060.485299858696 77.46421087973317 1721.4334242008683-102.81286923004893z" fill="rgba(28, 83, 142, 0.4)" class="triangle-float2"></path><path d="M1781.47086046791-173.51510649208942L1519.5834902039105 107.32471492967213 2062.3106818896713 88.37226377191004z" fill="rgba(28, 83, 142, 0.4)" class="triangle-float1"></path><path d="M1657.744983242701-37.79113844415372L1733.612874961685 394.88792751262173 2032.0369241611618 153.22889734948401z" fill="rgba(28, 83, 142, 0.4)" class="triangle-float3"></path><path d="M175.98955826002438 1359.8656138208503L297.47396721283053 937.7179506832954-76.68413766469985 1024.0991555513394z" fill="rgba(28, 83, 142, 0.4)" class="triangle-float3"></path><path d="M-163.41875280734695 1073.9145805259866L28.58124719265325 1406.468335579211 169.13500224587744 881.9145805259864z" fill="rgba(28, 83, 142, 0.4)" class="triangle-float1"></path><path d="M186.80263590762647 946.9308381998253L-124.11127052627592 1257.2526935325131 245.0132207140385 1363.0974381662409z" fill="rgba(28, 83, 142, 0.4)" class="triangle-float3"></path><path d="M1871.9160732620612 954.2007776924187L1530.2679190827696 1230.3233045840038 1886.3065192364159 1374.172236455714z" fill="rgba(28, 83, 142, 0.4)" class="triangle-float2"></path><path d="M1998.064176275001 1096.7852703781289L1571.9339293581277 990.1076074224956 1671.3204426774955 1361.023124717498z" fill="rgba(28, 83, 142, 0.4)" class="triangle-float3"></path><path d="M1503.4839134624387 1240.2082197489144L1842.5357891202668 1420.4852998586964 1683.7609935722207 901.1563440910863z" fill="rgba(28, 83, 142, 0.4)" class="triangle-float3"></path></g><defs><mask id="SvgjsMask1285"><rect width="1920" height="1280" fill="#ffffff"></rect></mask><linearGradient x1="8.33%" y1="-12.5%" x2="91.67%" y2="112.5%" gradientUnits="userSpaceOnUse" id="SvgjsLinearGradient1286"><stop stop-color="#0e2a47" offset="0"></stop><stop stop-color="rgba(255, 255, 255, 1)" offset="1"></stop></linearGradient></defs></svg>